<svg width="61" height="56" viewBox="0 0 61 56" fill="none" xmlns="http://www.w3.org/2000/svg">
<path d="M29.6667 27C37.7668 27 44.3333 21.1797 44.3333 14C44.3333 6.8203 37.7668 1 29.6667 1C21.5665 1 15 6.8203 15 14C15 21.1797 21.5665 27 29.6667 27Z" fill="#FFFDFD" stroke="#00FF19" stroke-linecap="round" stroke-linejoin="round"/>
<path d="M59.6667 55.5V49C59.6667 45.5522 58.1214 42.2456 55.3709 39.8076C52.6204 37.3696 48.8898 36 45 36H15.6667C11.7768 36 8.0463 37.3696 5.29577 39.8076C2.54523 42.2456 1 45.5522 1 49V55.5" fill="white"/>
<path d="M59.6667 55.5V49C59.6667 45.5522 58.1214 42.2456 55.3709 39.8076C52.6204 37.3696 48.8898 36 45 36H15.6667C11.7768 36 8.0463 37.3696 5.29577 39.8076C2.54523 42.2456 1 45.5522 1 49V55.5" stroke="#00FF19" stroke-linecap="round" stroke-linejoin="round"/>
</svg>
